<svg width="24" height="24" viewBox="0 0 24 24" fill="none" xmlns="http://www.w3.org/2000/svg">
<path d="M3 17.4605V20.5001C3 20.78 3.21997 21 3.49993 21H6.53952C6.6695 21 6.79948 20.95 6.88947 20.85L17.808 9.9415L14.0585 6.19201L3.14998 17.1005C3.04999 17.2005 3 17.3205 3 17.4605ZM20.7076 5.63209L18.3679 3.2924C18.2754 3.19971 18.1655 3.12618 18.0446 3.076C17.9236 3.02583 17.794 3 17.663 3C17.5321 3 17.4024 3.02583 17.2814 3.076C17.1605 3.12618 17.0506 3.19971 16.9581 3.2924L15.1284 5.12216L18.8778 8.87165L20.7076 7.0419C20.8003 6.94939 20.8738 6.83952 20.924 6.71856C20.9742 6.59761 21 6.46794 21 6.33699C21 6.20604 20.9742 6.07638 20.924 5.95542C20.8738 5.83446 20.8003 5.72459 20.7076 5.63209Z" fill="#6E6E6E"/>
</svg>
